Coordinates
version=1
nRows=8
nColumns=63
inDegrees=yes

Units are S.I. units (second, meters, Newtons, ...)
If the header above contains a line with 'inDegrees', this indicates whether rotational values are in degrees (yes) or radians (no).

endheader
time	pelvis_tilt	pelvis_list	pelvis_rotation	pelvis_tx	pelvis_ty	pelvis_tz	hip_flexion_r	hip_adduction_r	hip_rotation_r	knee_angle_r	knee_angle_r_beta	ankle_angle_r	subtalar_angle_r	mtp_angle_r	hip_flexion_l	hip_adduction_l	hip_rotation_l	knee_angle_l	knee_angle_l_beta	ankle_angle_l	subtalar_angle_l	mtp_angle_l	L5_S1_Flex_Ext	L5_S1_Lat_Bending	L5_S1_axial_rotation	L4_L5_Flex_Ext	L4_L5_Lat_Bending	L4_L5_axial_rotation	L3_L4_Flex_Ext	L3_L4_Lat_Bending	L3_L4_axial_rotation	L2_L3_Flex_Ext	L2_L3_Lat_Bending	L2_L3_axial_rotation	L1_L2_Flex_Ext	L1_L2_Lat_Bending	L1_L2_axial_rotation	L1_T12_Flex_Ext	L1_T12_Lat_Bending	L1_T12_axial_rotation	Abs_r3	Abs_r2	Abs_r1	Abs_t1	Abs_t2	neck_flexion	neck_bending	neck_rotation	arm_flex_r	arm_add_r	arm_rot_r	elbow_flex_r	pro_sup_r	wrist_flex_r	wrist_dev_r	arm_flex_l	arm_add_l	arm_rot_l	elbow_flex_l	pro_sup_l	wrist_flex_l	wrist_dev_l
1.166667	-3.789667	-8.031198	86.656028	0.271466	0.698921	0.756381	12.548986	-2.889065	0.007670	5.936856	0.103618	19.239015	13.229824	0.000000	11.656345	0.380720	-20.329237	8.134805	0.141979	16.543733	15.259758	0.000000	-0.023577	-1.149900	0.969922	-0.043785	-1.529367	1.030542	-0.038735	-2.795866	1.030542	-0.026946	-2.795866	0.848682	-0.021894	-2.344876	0.788062	-0.013472	-1.781195	0.727441	-0.168409	-13.007896	5.394415	0.000000	0.000000	16.032306	7.842355	-11.342161	27.575536	-10.940470	15.096039	121.788375	75.437680	-1.448898	20.180995	27.058630	-2.627485	24.246051	112.387597	86.774314	-28.173566	-13.332041
1.183333	-3.454533	-8.418835	87.460025	0.270263	0.698000	0.757028	12.868107	-2.692396	-0.569055	5.949623	0.103841	19.147677	12.904175	0.000000	12.388329	0.115150	-19.243142	8.675993	0.151425	16.854530	14.816503	0.000000	-0.016232	-1.102631	0.829313	-0.030145	-1.466500	0.881145	-0.026668	-2.680938	0.881145	-0.018552	-2.680938	0.725649	-0.015073	-2.248486	0.673817	-0.009275	-1.707976	0.621985	-0.115946	-12.473186	4.612389	0.000000	0.000000	16.614632	7.341061	-11.361826	28.907841	-11.421018	18.077941	120.930842	74.706449	-1.392401	19.732141	25.096077	-2.648496	21.481803	113.428923	87.002877	-26.730577	-13.519641
1.200000	-3.104159	-8.788645	88.320589	0.269011	0.697072	0.757723	13.163251	-2.498880	-1.181109	5.943378	0.103732	19.067487	12.538459	0.000000	13.107512	-0.139241	-18.132253	9.195916	0.160499	17.165885	14.417012	0.000000	-0.010418	-1.053445	0.692266	-0.019347	-1.401081	0.735533	-0.017116	-2.561345	0.735533	-0.011907	-2.561345	0.605733	-0.009674	-2.148184	0.562466	-0.005953	-1.631786	0.519200	-0.074414	-11.916775	3.850178	0.000000	0.000000	17.226969	6.821573	-11.406042	29.988671	-11.606780	20.723185	120.031947	74.458647	-1.336193	19.081467	23.337789	-2.734016	18.793010	114.391190	87.167540	-25.480537	-13.501406
1.216667	-2.749065	-9.141556	89.201829	0.267749	0.696156	0.758440	13.438067	-2.315028	-1.815096	5.914312	0.103224	19.001898	12.174522	0.000000	13.799162	-0.368519	-17.020176	9.665178	0.168689	17.463746	14.043623	0.000000	-0.003965	-1.003492	0.565903	-0.007363	-1.334644	0.601272	-0.006513	-2.439891	0.601272	-0.004531	-2.439891	0.495165	-0.003681	-2.046321	0.459796	-0.002265	-1.554409	0.424427	-0.028318	-11.351703	3.147383	0.000000	0.000000	17.824258	6.275686	-11.469815	30.758601	-11.448761	22.943479	119.120794	74.676369	-1.214605	18.297689	21.795861	-2.890564	16.163804	115.353903	87.254073	-24.128924	-12.925398
1.233333	-2.397880	-9.468428	90.084699	0.266495	0.695278	0.759152	13.691413	-2.148402	-2.499172	5.882720	0.102673	18.970136	11.878967	0.000000	14.447840	-0.570631	-15.966217	10.081011	0.175947	17.751266	13.751487	0.000000	0.003310	-0.951984	0.447839	0.006147	-1.266138	0.475828	0.005438	-2.314653	0.475828	0.003783	-2.314653	0.391859	0.003073	-1.941285	0.363869	0.001891	-1.474623	0.335879	0.023641	-10.769029	2.490744	0.000000	0.000000	18.343826	5.713096	-11.370887	31.248838	-10.912827	24.717363	118.212987	75.343835	-0.935903	17.586749	20.499290	-3.167907	13.650245	116.430390	87.371276	-22.782990	-11.484400
1.250000	-2.056061	-9.757717	90.942466	0.265261	0.694488	0.759827	13.896106	-1.993950	-3.164225	5.815060	0.101492	18.929498	11.611456	0.000000	15.016690	-0.737136	-14.951804	10.394227	0.181413	17.993048	13.501042	0.000000	0.010354	-0.899817	0.343866	0.019228	-1.196757	0.365357	0.017010	-2.187816	0.365357	0.011833	-2.187816	0.300883	0.009615	-1.834907	0.279391	0.005916	-1.393817	0.257899	0.073957	-10.178912	1.912478	0.000000	0.000000	18.774207	5.157045	-11.158556	31.476196	-10.015914	26.008379	117.307925	76.417255	-0.438471	16.995130	19.437739	-3.554575	11.342902	117.581752	87.590730	-21.440506	-9.498280
1.266667	-1.745382	-10.027442	91.707558	0.264134	0.693765	0.760436	14.088156	-1.861594	-3.767506	5.740244	0.100186	18.880172	11.413802	0.000000	15.516428	-0.860059	-14.048989	10.602679	0.185052	18.185514	13.281174	0.000000	0.019827	-0.851088	0.269745	0.036820	-1.131947	0.286604	0.032573	-2.069335	0.286604	0.022660	-2.069335	0.236027	0.018411	-1.735539	0.219168	0.011329	-1.318335	0.202309	0.141621	-9.627678	1.500241	0.000000	0.000000	19.128780	4.639760	-10.955941	31.459501	-8.844358	26.858023	116.449801	77.881083	-0.003755	16.497841	18.619063	-4.049196	9.325397	118.868546	87.863361	-20.113123	-6.765751
1.283333	-1.455500	-10.262766	92.416703	0.263025	0.693150	0.760950	14.241094	-1.747433	-4.356843	5.669883	0.098958	18.812545	11.293628	0.000000	15.936064	-0.954938	-13.241139	10.725754	0.187200	18.325798	13.118337	0.000000	0.028894	-0.801533	0.203982	0.053660	-1.066038	0.216731	0.047471	-1.948847	0.216731	0.033023	-1.948847	0.178485	0.026831	-1.634485	0.165736	0.016510	-1.241574	0.152987	0.206390	-9.067098	1.134489	0.000000	0.000000	19.390199	4.139387	-10.535002	31.307280	-7.416146	27.388442	115.601367	79.678095	0.210460	16.117237	17.957754	-4.628264	7.543781	120.176411	88.173919	-18.930611	-4.071701
